<?xml version="1.0" encoding="utf-8"?>
<!-- Svg Vector Icons : http://www.onlinewebfonts.com/icon -->
<!DOCTYPE svg PUBLIC "-//W3C//DTD SVG 1.1//EN" "http://www.w3.org/Graphics/SVG/1.1/DTD/svg11.dtd">
<svg version="1.1" xmlns="http://www.w3.org/2000/svg" xmlns:xlink="http://www.w3.org/1999/xlink" x="0px" y="0px" viewBox="0 0 256 256" enable-background="new 0 0 256 256" xml:space="preserve">
<metadata> Svg Vector Icons : http://www.onlinewebfonts.com/icon </metadata>
<g><g><path fill="#000000" d="M166,189c-1.3,5.3-8.2,17-19.1,32.7c3,0.7,5.9,1.5,8.7,2c5.3,1,10.6,1.7,15.9,2.6c1.7,0.3,2.6-0.3,3.5-1.7c10.6-15.7,19.2-32.5,26.4-50c2.8-6.8,5.2-13.8,7.8-20.8c0.3-0.7,0.5-1.4,0.8-2.3c5.7,2,11.3,3.9,17.1,5.9c-1,3-2,5.9-3,8.8c-8.7,24.2-19.7,47.2-34.2,68.6c-1.2,1.8-2.6,3.4-3.8,5.2c-2.7,4.1-6.6,5.3-11.3,4.9c-18.5-1.7-36.4-5.9-53.7-12.4c-31.6-11.8-58.7-29.9-80.3-55.9c-2.6-3.1-3.3-6.6-1.6-10.2c1.6-3.5,4.7-5.1,8.6-5.2c16.4-0.2,32.2-3.5,47.5-9.2c13.8-5.2,26.4-12.4,36.1-23.8c2.8-3.3,5.1-7,7.8-10.7c5,2.8,10.1,5.7,15.8,8.8c-2.9,4.2-5.5,8.4-8.6,12.3c-7.5,9.4-17,16.6-27.5,22.4c-15.8,8.7-32.9,13.8-50.8,16.6c-0.4,0-0.7,0.1-1.6,0.3c2.6,2.3,4.7,4.5,7.1,6.4c4.4,3.6,8.9,7,13.5,10.4c0.9,0.7,2.5,0.9,3.6,0.7c9.1-2,17.5-5.7,24.5-12.1c-0.6,3.2-6.4,11.2-14.5,20.2c5.1,2.5,10.2,4.7,15,7.5c6.2,3.6,12.1,2.6,18.2,0c10.3-4.4,19.1-11,27.5-18.2C163.1,191.6,164.4,190.4,166,189z M232.7,142.4c-28.9-12.8-57.6-25.4-86.5-38.2c2.4-5.5,6.1-9.7,11.2-12.7c8.5-5,17.3-5.5,26.3-1.6c11.5,5,23.1,10,34.5,15.3c13.4,6.2,19.7,20.1,15.7,33.9C233.6,140.2,233.2,141.2,232.7,142.4z M219.9,92.4c-9.1-4-18.1-8-27-12c-0.2-0.1-0.3-0.3-0.6-0.5c0.3-0.7,0.7-1.3,1-2c11.2-21,22.5-41.9,33.7-62.8c1.9-3.5,4.1-4.6,8.1-4c3.7,0.5,6.9,2.1,9.3,5c1.6,1.9,2,4,1.1,6.4c-8.4,22.9-16.7,45.9-25.1,68.8C220.3,91.7,220.2,91.9,219.9,92.4z M82.7,114.5c-0.3,12.5-10.8,22.6-23.1,22.3c-12.5-0.4-22.6-10.7-22.3-23c0.3-12.2,10.8-22.4,23-22.2C72.7,91.8,83,102.3,82.7,114.5z M23.7,46.5c7.5,0,13.6,6.1,13.6,13.6c-0.1,7.3-6.2,13.4-13.6,13.4C16.3,73.6,10,67.4,10,60C10,52.6,16.1,46.5,23.7,46.5z M55.5,64.5c0-5,4-9,9.1-9c5,0,9.1,4.2,9,9.1c-0.1,4.8-4.2,8.9-9,8.9C59.6,73.6,55.5,69.5,55.5,64.5z"/></g></g>
</svg>